# xmcd CD database file
#
# Track frame offsets:
#	182
#	9940
#	26332
#	43352
#	57412
#	81147
#	96297
#	110997
#	123845
#	143847
#	161977
#	172722
#	187272
#
# Disc length: 2669 seconds
#
# Revision: 0
# Processed by: cddbd v1.5.1PL0 Copyright (c) Steve Scherf et al.
# Submitted via: CDex 1.51
#
DISCID=b00a6b0d
DTITLE=BALLOCHMYLE - A Touch of Country
DYEAR=1994
DGENRE=Country
TTITLE0=Thibodeaux And His cajun Band
TTITLE1=Girl Of My Best Friend
TTITLE2=Always On My Mind
TTITLE3=Hello Trouble
TTITLE4=Medley: Wlak Right Back, You're Sixteen, King Of The Road
TTITLE5=Rhythm Of The Rain
TTITLE6=An Old Irish Song
TTITLE7=Before The Next Teardrop Falls
TTITLE8=Mississippi
TTITLE9=Daddy's Boy
TTITLE10=Keys In The Mailbox
TTITLE11=Everyday
TTITLE12=When My Blue Moon Turns to Gold
EXTD=YEAR: 1994
EXTT0=
EXTT1=
EXTT2=
EXTT3=
EXTT4=
EXTT5=
EXTT6=
EXTT7=
EXTT8=
EXTT9=
EXTT10=
EXTT11=
EXTT12=
PLAYORDER=
